<mxfile host="app.diagrams.net" modified="2023-07-13T00:41:30.065Z" agent="Mozilla/5.0 (Windows NT 10.0; Win64; x64) AppleWebKit/537.36 (KHTML, like Gecko) Chrome/114.0.0.0 Safari/537.36 Edg/114.0.1823.79" etag="Dc6TYeBow6znPrseP-gL" version="21.6.2" type="device">
  <diagram name="Página-1" id="7qxutLgJ4Y1PpzYB-jp-">
    <mxGraphModel dx="1149" dy="1826" grid="1" gridSize="10" guides="1" tooltips="1" connect="1" arrows="1" fold="1" page="1" pageScale="1" pageWidth="827" pageHeight="1169" math="0" shadow="0">
      <root>
        <mxCell id="0" />
        <mxCell id="1" parent="0" />
        <mxCell id="q8uHO_DFmoE5uaou6cqO-1" value="Usuário" style="whiteSpace=wrap;html=1;align=center;" vertex="1" parent="1">
          <mxGeometry x="210" y="-470" width="100" height="40" as="geometry" />
        </mxCell>
        <mxCell id="q8uHO_DFmoE5uaou6cqO-13" value="" style="endArrow=none;html=1;rounded=0;exitX=0.5;exitY=1;exitDx=0;exitDy=0;" edge="1" parent="1" source="q8uHO_DFmoE5uaou6cqO-35">
          <mxGeometry relative="1" as="geometry">
            <mxPoint x="170" y="-480" as="sourcePoint" />
            <mxPoint x="260" y="-470" as="targetPoint" />
          </mxGeometry>
        </mxCell>
        <mxCell id="q8uHO_DFmoE5uaou6cqO-14" value="" style="endArrow=none;html=1;rounded=0;entryX=0.5;entryY=0;entryDx=0;entryDy=0;exitX=0.5;exitY=1;exitDx=0;exitDy=0;" edge="1" parent="1" source="q8uHO_DFmoE5uaou6cqO-33" target="q8uHO_DFmoE5uaou6cqO-1">
          <mxGeometry relative="1" as="geometry">
            <mxPoint x="337.39519075316593" y="-496.8189328413159" as="sourcePoint" />
            <mxPoint x="270" y="-460" as="targetPoint" />
          </mxGeometry>
        </mxCell>
        <mxCell id="q8uHO_DFmoE5uaou6cqO-33" value="Email" style="ellipse;whiteSpace=wrap;html=1;align=center;fontStyle=4;" vertex="1" parent="1">
          <mxGeometry x="280" y="-570" width="100" height="40" as="geometry" />
        </mxCell>
        <mxCell id="q8uHO_DFmoE5uaou6cqO-35" value="Nome" style="ellipse;whiteSpace=wrap;html=1;align=center;" vertex="1" parent="1">
          <mxGeometry x="150" y="-570" width="100" height="40" as="geometry" />
        </mxCell>
        <mxCell id="q8uHO_DFmoE5uaou6cqO-41" value="Projeto" style="whiteSpace=wrap;html=1;align=center;" vertex="1" parent="1">
          <mxGeometry x="590" y="-470" width="100" height="40" as="geometry" />
        </mxCell>
        <mxCell id="q8uHO_DFmoE5uaou6cqO-42" value="ID Projeto" style="ellipse;whiteSpace=wrap;html=1;align=center;fontStyle=4;" vertex="1" parent="1">
          <mxGeometry x="590" y="-570" width="100" height="40" as="geometry" />
        </mxCell>
        <mxCell id="q8uHO_DFmoE5uaou6cqO-43" value="Nome" style="ellipse;whiteSpace=wrap;html=1;align=center;" vertex="1" parent="1">
          <mxGeometry x="470" y="-570" width="100" height="40" as="geometry" />
        </mxCell>
        <mxCell id="q8uHO_DFmoE5uaou6cqO-44" value="" style="endArrow=none;html=1;rounded=0;entryX=0.25;entryY=0;entryDx=0;entryDy=0;exitX=0.5;exitY=1;exitDx=0;exitDy=0;" edge="1" parent="1" source="q8uHO_DFmoE5uaou6cqO-43" target="q8uHO_DFmoE5uaou6cqO-41">
          <mxGeometry relative="1" as="geometry">
            <mxPoint x="650" y="-505" as="sourcePoint" />
            <mxPoint x="460" y="-535" as="targetPoint" />
          </mxGeometry>
        </mxCell>
        <mxCell id="q8uHO_DFmoE5uaou6cqO-45" value="" style="endArrow=none;html=1;rounded=0;entryX=0.5;entryY=0;entryDx=0;entryDy=0;" edge="1" parent="1" source="q8uHO_DFmoE5uaou6cqO-42" target="q8uHO_DFmoE5uaou6cqO-41">
          <mxGeometry relative="1" as="geometry">
            <mxPoint x="544" y="-496" as="sourcePoint" />
            <mxPoint x="560" y="-495" as="targetPoint" />
          </mxGeometry>
        </mxCell>
        <mxCell id="q8uHO_DFmoE5uaou6cqO-46" value="URL Projeto" style="ellipse;whiteSpace=wrap;html=1;align=center;" vertex="1" parent="1">
          <mxGeometry x="710" y="-570" width="100" height="40" as="geometry" />
        </mxCell>
        <mxCell id="q8uHO_DFmoE5uaou6cqO-47" value="" style="endArrow=none;html=1;rounded=0;exitX=0;exitY=1;exitDx=0;exitDy=0;entryX=0.75;entryY=0;entryDx=0;entryDy=0;" edge="1" parent="1" source="q8uHO_DFmoE5uaou6cqO-46" target="q8uHO_DFmoE5uaou6cqO-41">
          <mxGeometry relative="1" as="geometry">
            <mxPoint x="750" y="-505" as="sourcePoint" />
            <mxPoint x="660" y="-460" as="targetPoint" />
          </mxGeometry>
        </mxCell>
        <mxCell id="q8uHO_DFmoE5uaou6cqO-48" value="Cria Projeto" style="shape=rhombus;perimeter=rhombusPerimeter;whiteSpace=wrap;html=1;align=center;" vertex="1" parent="1">
          <mxGeometry x="380" y="-420" width="120" height="60" as="geometry" />
        </mxCell>
        <mxCell id="q8uHO_DFmoE5uaou6cqO-49" value="" style="fontSize=12;html=1;endArrow=ERzeroToMany;endFill=1;rounded=0;entryX=0;entryY=0.5;entryDx=0;entryDy=0;exitX=1;exitY=0.5;exitDx=0;exitDy=0;edgeStyle=orthogonalEdgeStyle;" edge="1" parent="1" source="q8uHO_DFmoE5uaou6cqO-48" target="q8uHO_DFmoE5uaou6cqO-41">
          <mxGeometry width="100" height="100" relative="1" as="geometry">
            <mxPoint x="440" y="-160" as="sourcePoint" />
            <mxPoint x="445" y="-180" as="targetPoint" />
          </mxGeometry>
        </mxCell>
        <mxCell id="q8uHO_DFmoE5uaou6cqO-50" value="" style="edgeStyle=orthogonalEdgeStyle;fontSize=12;html=1;endArrow=ERmandOne;rounded=0;entryX=1;entryY=0.5;entryDx=0;entryDy=0;exitX=0;exitY=0.5;exitDx=0;exitDy=0;" edge="1" parent="1" source="q8uHO_DFmoE5uaou6cqO-48" target="q8uHO_DFmoE5uaou6cqO-1">
          <mxGeometry width="100" height="100" relative="1" as="geometry">
            <mxPoint x="140" y="-360" as="sourcePoint" />
            <mxPoint x="340" y="-290" as="targetPoint" />
          </mxGeometry>
        </mxCell>
        <mxCell id="q8uHO_DFmoE5uaou6cqO-51" value="1" style="text;html=1;align=center;verticalAlign=middle;resizable=0;points=[];autosize=1;strokeColor=none;fillColor=none;" vertex="1" parent="1">
          <mxGeometry x="310" y="-480" width="30" height="30" as="geometry" />
        </mxCell>
        <mxCell id="q8uHO_DFmoE5uaou6cqO-52" value="0 ou N" style="text;html=1;align=center;verticalAlign=middle;resizable=0;points=[];autosize=1;strokeColor=none;fillColor=none;" vertex="1" parent="1">
          <mxGeometry x="530" y="-480" width="60" height="30" as="geometry" />
        </mxCell>
        <mxCell id="q8uHO_DFmoE5uaou6cqO-53" value="Tarefa" style="whiteSpace=wrap;html=1;align=center;" vertex="1" parent="1">
          <mxGeometry x="590" y="-140" width="100" height="40" as="geometry" />
        </mxCell>
        <mxCell id="q8uHO_DFmoE5uaou6cqO-54" value="Descrição" style="ellipse;whiteSpace=wrap;html=1;align=center;fontStyle=0;" vertex="1" parent="1">
          <mxGeometry x="520" y="10" width="100" height="40" as="geometry" />
        </mxCell>
        <mxCell id="q8uHO_DFmoE5uaou6cqO-55" value="Nome" style="ellipse;whiteSpace=wrap;html=1;align=center;" vertex="1" parent="1">
          <mxGeometry x="420" y="-20" width="100" height="40" as="geometry" />
        </mxCell>
        <mxCell id="q8uHO_DFmoE5uaou6cqO-56" value="" style="endArrow=none;html=1;rounded=0;entryX=0.183;entryY=1.012;entryDx=0;entryDy=0;exitX=0.5;exitY=0;exitDx=0;exitDy=0;entryPerimeter=0;" edge="1" parent="1" source="q8uHO_DFmoE5uaou6cqO-55" target="q8uHO_DFmoE5uaou6cqO-53">
          <mxGeometry relative="1" as="geometry">
            <mxPoint x="650" y="-175" as="sourcePoint" />
            <mxPoint x="460" y="-205" as="targetPoint" />
          </mxGeometry>
        </mxCell>
        <mxCell id="q8uHO_DFmoE5uaou6cqO-57" value="" style="endArrow=none;html=1;rounded=0;" edge="1" parent="1" source="q8uHO_DFmoE5uaou6cqO-54">
          <mxGeometry relative="1" as="geometry">
            <mxPoint x="544" y="-166" as="sourcePoint" />
            <mxPoint x="640" y="-100" as="targetPoint" />
          </mxGeometry>
        </mxCell>
        <mxCell id="q8uHO_DFmoE5uaou6cqO-58" value="Iniciado" style="ellipse;whiteSpace=wrap;html=1;align=center;" vertex="1" parent="1">
          <mxGeometry x="640" y="10" width="100" height="40" as="geometry" />
        </mxCell>
        <mxCell id="q8uHO_DFmoE5uaou6cqO-59" value="" style="endArrow=none;html=1;rounded=0;exitX=0.5;exitY=0;exitDx=0;exitDy=0;entryX=0.75;entryY=1;entryDx=0;entryDy=0;" edge="1" parent="1" source="q8uHO_DFmoE5uaou6cqO-58" target="q8uHO_DFmoE5uaou6cqO-53">
          <mxGeometry relative="1" as="geometry">
            <mxPoint x="750" y="-175" as="sourcePoint" />
            <mxPoint x="660" y="-130" as="targetPoint" />
          </mxGeometry>
        </mxCell>
        <mxCell id="q8uHO_DFmoE5uaou6cqO-60" value="Tem tarefa" style="shape=rhombus;perimeter=rhombusPerimeter;whiteSpace=wrap;html=1;align=center;" vertex="1" parent="1">
          <mxGeometry x="280" y="-290" width="120" height="60" as="geometry" />
        </mxCell>
        <mxCell id="q8uHO_DFmoE5uaou6cqO-62" value="" style="fontSize=12;html=1;endArrow=ERzeroToMany;endFill=1;rounded=0;entryX=0;entryY=0.5;entryDx=0;entryDy=0;exitX=1;exitY=0.5;exitDx=0;exitDy=0;edgeStyle=orthogonalEdgeStyle;" edge="1" parent="1" source="q8uHO_DFmoE5uaou6cqO-60" target="q8uHO_DFmoE5uaou6cqO-53">
          <mxGeometry width="100" height="100" relative="1" as="geometry">
            <mxPoint x="394.77" y="-160" as="sourcePoint" />
            <mxPoint x="484.77" y="-220" as="targetPoint" />
          </mxGeometry>
        </mxCell>
        <mxCell id="q8uHO_DFmoE5uaou6cqO-63" value="" style="edgeStyle=orthogonalEdgeStyle;fontSize=12;html=1;endArrow=ERmandOne;rounded=0;exitX=0;exitY=0.5;exitDx=0;exitDy=0;entryX=0.5;entryY=1;entryDx=0;entryDy=0;" edge="1" parent="1" source="q8uHO_DFmoE5uaou6cqO-60" target="q8uHO_DFmoE5uaou6cqO-1">
          <mxGeometry width="100" height="100" relative="1" as="geometry">
            <mxPoint x="330" y="-310" as="sourcePoint" />
            <mxPoint x="260" y="-410" as="targetPoint" />
          </mxGeometry>
        </mxCell>
        <mxCell id="q8uHO_DFmoE5uaou6cqO-64" value="Cria tarefa" style="shape=rhombus;perimeter=rhombusPerimeter;whiteSpace=wrap;html=1;align=center;" vertex="1" parent="1">
          <mxGeometry x="580" y="-290" width="120" height="60" as="geometry" />
        </mxCell>
        <mxCell id="q8uHO_DFmoE5uaou6cqO-65" value="" style="edgeStyle=orthogonalEdgeStyle;fontSize=12;html=1;endArrow=ERmandOne;rounded=0;exitX=0.5;exitY=0;exitDx=0;exitDy=0;entryX=0.5;entryY=1;entryDx=0;entryDy=0;" edge="1" parent="1" source="q8uHO_DFmoE5uaou6cqO-64" target="q8uHO_DFmoE5uaou6cqO-41">
          <mxGeometry width="100" height="100" relative="1" as="geometry">
            <mxPoint x="680" y="-220" as="sourcePoint" />
            <mxPoint x="660" y="-390" as="targetPoint" />
          </mxGeometry>
        </mxCell>
        <mxCell id="q8uHO_DFmoE5uaou6cqO-66" value="" style="fontSize=12;html=1;endArrow=ERzeroToMany;endFill=1;rounded=0;entryX=0.5;entryY=0;entryDx=0;entryDy=0;exitX=0.5;exitY=1;exitDx=0;exitDy=0;edgeStyle=orthogonalEdgeStyle;" edge="1" parent="1" source="q8uHO_DFmoE5uaou6cqO-64" target="q8uHO_DFmoE5uaou6cqO-53">
          <mxGeometry width="100" height="100" relative="1" as="geometry">
            <mxPoint x="410" y="-250" as="sourcePoint" />
            <mxPoint x="600" y="-110" as="targetPoint" />
          </mxGeometry>
        </mxCell>
        <mxCell id="q8uHO_DFmoE5uaou6cqO-67" value="1" style="text;html=1;align=center;verticalAlign=middle;resizable=0;points=[];autosize=1;strokeColor=none;fillColor=none;" vertex="1" parent="1">
          <mxGeometry x="260" y="-430" width="30" height="30" as="geometry" />
        </mxCell>
        <mxCell id="q8uHO_DFmoE5uaou6cqO-68" value="1" style="text;html=1;align=center;verticalAlign=middle;resizable=0;points=[];autosize=1;strokeColor=none;fillColor=none;" vertex="1" parent="1">
          <mxGeometry x="640" y="-430" width="30" height="30" as="geometry" />
        </mxCell>
        <mxCell id="q8uHO_DFmoE5uaou6cqO-69" value="0 ou N" style="text;html=1;align=center;verticalAlign=middle;resizable=0;points=[];autosize=1;strokeColor=none;fillColor=none;" vertex="1" parent="1">
          <mxGeometry x="530" y="-150" width="60" height="30" as="geometry" />
        </mxCell>
        <mxCell id="q8uHO_DFmoE5uaou6cqO-70" value="0 ou N" style="text;html=1;align=center;verticalAlign=middle;resizable=0;points=[];autosize=1;strokeColor=none;fillColor=none;" vertex="1" parent="1">
          <mxGeometry x="640" y="-170" width="60" height="30" as="geometry" />
        </mxCell>
        <mxCell id="q8uHO_DFmoE5uaou6cqO-72" value="Finalizado" style="ellipse;whiteSpace=wrap;html=1;align=center;" vertex="1" parent="1">
          <mxGeometry x="750" y="-10" width="100" height="40" as="geometry" />
        </mxCell>
        <mxCell id="q8uHO_DFmoE5uaou6cqO-73" value="Editado" style="ellipse;whiteSpace=wrap;html=1;align=center;" vertex="1" parent="1">
          <mxGeometry x="790" y="-70" width="100" height="40" as="geometry" />
        </mxCell>
        <mxCell id="q8uHO_DFmoE5uaou6cqO-74" value="Data de Início" style="ellipse;whiteSpace=wrap;html=1;align=center;" vertex="1" parent="1">
          <mxGeometry x="800" y="-130" width="100" height="40" as="geometry" />
        </mxCell>
        <mxCell id="q8uHO_DFmoE5uaou6cqO-75" value="Data de Término" style="ellipse;whiteSpace=wrap;html=1;align=center;" vertex="1" parent="1">
          <mxGeometry x="810" y="-200" width="100" height="40" as="geometry" />
        </mxCell>
        <mxCell id="q8uHO_DFmoE5uaou6cqO-76" value="" style="endArrow=none;html=1;rounded=0;exitX=0;exitY=0;exitDx=0;exitDy=0;entryX=1;entryY=1;entryDx=0;entryDy=0;" edge="1" parent="1" source="q8uHO_DFmoE5uaou6cqO-72" target="q8uHO_DFmoE5uaou6cqO-53">
          <mxGeometry relative="1" as="geometry">
            <mxPoint x="700" y="20" as="sourcePoint" />
            <mxPoint x="675" y="-90" as="targetPoint" />
          </mxGeometry>
        </mxCell>
        <mxCell id="q8uHO_DFmoE5uaou6cqO-77" value="" style="endArrow=none;html=1;rounded=0;exitX=0;exitY=0;exitDx=0;exitDy=0;entryX=1;entryY=0.75;entryDx=0;entryDy=0;" edge="1" parent="1" source="q8uHO_DFmoE5uaou6cqO-73" target="q8uHO_DFmoE5uaou6cqO-53">
          <mxGeometry relative="1" as="geometry">
            <mxPoint x="710" y="30" as="sourcePoint" />
            <mxPoint x="700" y="-90" as="targetPoint" />
          </mxGeometry>
        </mxCell>
        <mxCell id="q8uHO_DFmoE5uaou6cqO-78" value="" style="endArrow=none;html=1;rounded=0;exitX=0;exitY=0.5;exitDx=0;exitDy=0;entryX=1;entryY=0.5;entryDx=0;entryDy=0;" edge="1" parent="1" source="q8uHO_DFmoE5uaou6cqO-74" target="q8uHO_DFmoE5uaou6cqO-53">
          <mxGeometry relative="1" as="geometry">
            <mxPoint x="725" y="40" as="sourcePoint" />
            <mxPoint x="700" y="-70" as="targetPoint" />
          </mxGeometry>
        </mxCell>
        <mxCell id="q8uHO_DFmoE5uaou6cqO-79" value="" style="endArrow=none;html=1;rounded=0;exitX=0;exitY=0.5;exitDx=0;exitDy=0;entryX=1;entryY=0.25;entryDx=0;entryDy=0;" edge="1" parent="1" source="q8uHO_DFmoE5uaou6cqO-75" target="q8uHO_DFmoE5uaou6cqO-53">
          <mxGeometry relative="1" as="geometry">
            <mxPoint x="730" y="50" as="sourcePoint" />
            <mxPoint x="705" y="-60" as="targetPoint" />
          </mxGeometry>
        </mxCell>
      </root>
    </mxGraphModel>
  </diagram>
</mxfile>
